<?xml version="1.0" encoding="utf-8"?>
<!-- Generator: Adobe Illustrator 20.1.0, SVG Export Plug-In . SVG Version: 6.00 Build 0)  -->
<svg version="1.1" id="Layer_1" xmlns="http://www.w3.org/2000/svg" xmlns:xlink="http://www.w3.org/1999/xlink" x="0px" y="0px"
	 viewBox="0 0 6236.2 1303.9" style="enable-background:new 0 0 6236.2 1303.9;" xml:space="preserve">
<style type="text/css">
	.st0{fill:#21353F;}
	.st1{fill:#D6BD5D;}
	.st2{enable-background:new    ;}
</style>
<g>
	<g>
		<path class="st0" d="M869,466.1l-604.5,0c-51.9,0-98.2-36.8-105.6-88.1c-9.2-63.9,40.2-118.8,102.3-118.8h604.5
			c51.9,0,98.2,36.8,105.6,88.1C980.6,411.3,931.2,466.1,869,466.1z"/>
	</g>
	<g>
		<path class="st0" d="M869,1044.7H264.5c-51.9,0-98.2-36.8-105.6-88.1c-9.2-63.9,40.2-118.8,102.3-118.8h604.5
			c51.9,0,98.2,36.8,105.6,88.1C980.6,989.9,931.2,1044.7,869,1044.7z"/>
	</g>
	<g>
		<path class="st1" d="M1085.3,1298.7c-28.4,0-56.9-12.8-75.9-38.4c-27.7-37.2-22.5-90.1,10.2-123c266.9-267.9,267-702.8,0.1-970.7
			c-32.6-32.7-38-85.3-10.7-122.6c35-47.8,102.6-51.5,142.7-11.4c341.4,341.4,341.4,897,0,1238.5
			C1133.5,1289.5,1109.4,1298.7,1085.3,1298.7z"/>
	</g>
	<path class="st0" d="M1021.6,548.5H582.5c49.7,8.3,87.6,51.4,87.6,103.4c0,52.1-37.9,95.2-87.7,103.4h442.4
		c62.2,0,111.5-54.8,102.3-118.8C1119.8,585.3,1073.5,548.5,1021.6,548.5z"/>
	<path class="st0" d="M781.4,652c0-50.2-156.6-93.1-109.5-103.4c0.6-0.1-128.8,0-129.4,0l-432.9,0c-55.4,0-104,41.8-107.3,97.1
		c-3.6,60,44,109.8,103.3,109.8h477c0.7,0,199.6-53.1,198.9-53.2C734.3,691.8,781.4,702.2,781.4,652z"/>
</g>
<g>
	<g>
		<g class="st2">
			<path d="M1582.1,128.8c0-8,4.8-12.9,12.9-12.9h192.8c75.5,0,115.7,40.2,115.7,115.7v196c0,74.7-40.2,115.7-115.7,115.7h-96.4
				v202.5c0,8-4,12.9-12.9,12.9h-83.6c-8,0-12.9-4.8-12.9-12.9L1582.1,128.8L1582.1,128.8z M1762,437.3c21.7,0,32.1-12.1,32.1-32.1
				v-151c0-20.9-10.4-32.1-32.1-32.1h-70.7v215.3L1762,437.3L1762,437.3z"/>
			<path d="M2195.9,209.1c0-8,4.8-12.9,12.9-12.9h82.8c9.6,0,13.7,4.8,13.7,12.9v536.7c0,8-4,12.9-13.7,12.9h-82.8
				c-8,0-12.9-4.8-12.9-12.9V532.1H2093v213.7c0,8-4.8,12.9-12.9,12.9h-82.8c-9.6,0-13.7-4.8-13.7-12.9V209.1c0-8,4-12.9,13.7-12.9
				h82.8c8,0,12.9,4.8,12.9,12.9V426h102.8L2195.9,209.1L2195.9,209.1z"/>
			<path d="M2398.3,758.7c-8.8,0-12.9-4.8-12.9-12.9V209.1c0-8,4-12.9,12.9-12.9h83.6c8,0,12.9,4.8,12.9,12.9v536.7
				c0,8-4.8,12.9-12.9,12.9L2398.3,758.7L2398.3,758.7z"/>
			<path d="M2684.3,652.6h159.1c8.8,0,12.9,4.8,12.9,12.9v80.3c0,8.8-4,12.9-12.9,12.9h-255.5c-8,0-12.9-4-12.9-12.9V209.1
				c0-8,4.8-12.9,12.9-12.9h83.6c8.8,0,12.9,4.8,12.9,12.9v443.5H2684.3z"/>
			<path d="M3200.1,196.3c12.1,0,17.7,8,12.9,18.5l-147,333.4v194.4c0,10.4-5.6,16.1-16.1,16.1h-77.1c-10.4,0-16.1-5.6-16.1-16.1
				V548.2l-147-333.4c-4.8-10.4,0.8-18.5,12.9-18.5h80.3c9.6,0,15.3,4.8,18.5,12.9l90,206.5l90-206.5c3.2-8,8.8-12.9,18.5-12.9
				L3200.1,196.3L3200.1,196.3z"/>
			<path d="M3246.7,312c0-75.5,40.2-115.7,115.7-115.7h90c75.5,0,115.7,40.2,115.7,115.7v331c0,75.5-40.2,115.7-115.7,115.7h-90
				c-75.5,0-115.7-40.2-115.7-115.7V312z M3434.7,655c20.9,0,32.1-10.4,32.1-32.1V332c0-20.9-11.2-32.1-32.1-32.1h-51.4
				c-20.9,0-32.1,11.2-32.1,32.1v290.8c0,21.7,11.2,32.1,32.1,32.1h51.4V655z"/>
			<path d="M3969.8,473.4c0,46.6-15.3,79.5-45,98l41.8,172.7c2.4,9.6-2.4,14.5-11.2,14.5h-78.7c-8,0-12.1-4-13.7-11.2l-38.6-158.3
				h-71.5v156.7c0,8-4.8,12.9-12.9,12.9h-78.7c-8,0-12.9-4.8-12.9-12.9V209.1c0-8,4.8-12.9,12.9-12.9h192.8
				c75.5,0,115.7,40.2,115.7,115.7L3969.8,473.4L3969.8,473.4z M3833.2,485.5c20.9,0,32.1-11.2,32.1-32.1V332
				c0-20.9-11.2-32.1-32.1-32.1h-80.3v185.6H3833.2z"/>
			<path d="M4308.9,758.7c-9.6,0-14.5-4-18.5-12.1l-101.2-198.4l-29.7,57v137.4c0,10.4-5.6,16.1-16.1,16.1h-77.1
				c-10.4,0-16.1-5.6-16.1-16.1V212.3c0-10.4,5.6-16.1,16.1-16.1h77.1c10.4,0,16.1,5.6,16.1,16.1v208.9l123.7-212.9
				c4-7.2,9.6-12.1,18.5-12.1h84.4c12.1,0,17.7,8.8,11.2,19.3l-136.6,240.2l145.4,284.4c5.6,10.4,0.8,18.5-12.1,18.5h-85.1V758.7z"
				/>
			<path d="M4686.5,196.3c75.5,0,115.7,40.2,115.7,115.7v53c0,8-4,12.9-12.9,12.9h-81.1c-8,0-12.9-4.8-12.9-12.9v-33.7
				c0-20.9-10.4-32.1-32.1-32.1H4619c-20.1,0-32.1,11.2-32.1,32.1v68.3l194.4,62.7c13.7,4.8,20.9,14.5,20.9,29.7v151
				c0,75.5-40.2,115.7-115.7,115.7h-90c-74.7,0-115.7-40.2-115.7-115.7v-52.2c0-8.8,4.8-12.9,12.9-12.9h81.1c8.8,0,12.9,4,12.9,12.9
				v33.7c0,21.7,12.1,32.1,32.1,32.1h43.4c20.9,0,32.1-10.4,32.1-32.1v-81.1l-192.8-62.7c-14.5-4.8-21.7-14.5-21.7-29.7V312
				c0-75.5,41-115.7,115.7-115.7H4686.5z"/>
			<path d="M5094.6,209.1c0-8,4.8-12.9,12.9-12.9h82.8c9.6,0,13.7,4.8,13.7,12.9v536.7c0,8-4,12.9-13.7,12.9h-82.8
				c-8,0-12.9-4.8-12.9-12.9V532.1h-102.8v213.7c0,8-4.8,12.9-12.9,12.9h-82.8c-9.6,0-13.7-4.8-13.7-12.9V209.1
				c0-8,4-12.9,13.7-12.9h82.8c8,0,12.9,4.8,12.9,12.9V426h102.8V209.1z"/>
			<path d="M5297,758.7c-8.8,0-12.9-4.8-12.9-12.9V209.1c0-8,4-12.9,12.9-12.9h83.6c8,0,12.9,4.8,12.9,12.9v536.7
				c0,8-4.8,12.9-12.9,12.9L5297,758.7L5297,758.7z"/>
			<path d="M5795.2,473.4c0,46.6-15.3,79.5-45,98l41.8,172.7c2.4,9.6-2.4,14.5-11.2,14.5H5702c-8,0-12.1-4-13.7-11.2l-38.6-158.3
				h-71.5v156.7c0,8-4.8,12.9-12.9,12.9h-78.7c-8,0-12.9-4.8-12.9-12.9V209.1c0-8,4.8-12.9,12.9-12.9h192.8
				c75.5,0,115.7,40.2,115.7,115.7v161.5H5795.2z M5658.6,485.5c20.9,0,32.1-11.2,32.1-32.1V332c0-20.9-11.2-32.1-32.1-32.1h-80.3
				v185.6H5658.6z"/>
			<path d="M6196.1,289.5c0,8-3.2,13.7-12.9,13.7h-198.4v123.7h151c8,0,12.9,4.8,12.9,13.7V520c0,8.8-4.8,13.7-12.9,13.7h-151v118.9
				h198.4c9.6,0,12.9,4,12.9,12.9v80.3c0,8-3.2,12.9-12.9,12.9h-295.7c-7.2,0-12.1-4.8-12.1-12.9V209.1c0-8,4.8-12.9,12.1-12.9
				h295.7c9.6,0,12.9,4.8,12.9,12.9V289.5z"/>
		</g>
		<g class="st2">
			<path d="M3207.9,1151.5c-39.7,0-59.6-19.9-59.6-59.6v-59.6c0-39.7,19.9-59.6,59.6-59.6h93.7v-76.6h25.5V1092
				c0,39.7-19.9,59.6-59.6,59.6h-59.6V1151.5z M3173.9,1091.9c0,22.7,11.4,34.1,34.1,34.1h59.6c22.7,0,34.1-11.4,34.1-34.1v-93.7
				H3208c-22.7,0-34.1,11.4-34.1,34.1L3173.9,1091.9L3173.9,1091.9z"/>
			<path d="M3365.5,951.4c-11.4,0-17-5.7-17-17c0-11.4,5.7-17,17-17c11.4,0,17,5.7,17,17S3376.8,951.4,3365.5,951.4z M3352.7,1151.5
				V972.7h25.5v178.8H3352.7z"/>
			<path d="M3403.8,1032.3c0-39.7,19.9-59.6,59.6-59.6h59.6c39.7,0,59.6,19.9,59.6,59.6v136.2c0,39.7-19.9,59.6-59.6,59.6h-119.2
				v-25.5H3523c22.7,0,34.1-11.4,34.1-34.1v-17h-93.7c-39.7,0-59.6-19.9-59.6-59.6V1032.3z M3463.4,998.3
				c-22.7,0-34.1,11.4-34.1,34.1v59.6c0,22.7,11.4,34.1,34.1,34.1h93.7v-93.7c0-22.7-11.4-34.1-34.1-34.1L3463.4,998.3L3463.4,998.3
				z"/>
			<path d="M3620.9,951.4c-11.4,0-17-5.7-17-17c0-11.4,5.7-17,17-17c11.4,0,17,5.7,17,17C3638,945.7,3632.3,951.4,3620.9,951.4z
				 M3608.2,1151.5V972.7h25.5v178.8H3608.2z"/>
			<path d="M3710.4,1091.9c0,22.7,11.4,34.1,34.1,34.1h17v25.5h-17c-39.7,0-59.6-19.9-59.6-59.6v-93.7h-25.5v-25.5h25.5v-42.6h25.5
				v42.6h42.6v25.5h-42.6V1091.9z"/>
			<path d="M3846.6,998.3c-22.7,0-34.1,11.4-34.1,34.1H3787c0-39.7,19.9-59.6,59.6-59.6h59.6c39.7,0,59.6,19.9,59.6,59.6v59.6
				c0,39.7-19.9,59.6-59.6,59.6h-59.6c-39.7,0-59.6-17-59.6-51.1c0-24.8,8.6-38.9,25.9-42.6l127.2-29c-1-20.4-12.3-30.7-33.9-30.7
				L3846.6,998.3L3846.6,998.3z M3906.2,1126c22.7,0,34.1-11.4,34.1-34.1v-36.6l-120.8,27.8c-4.7,1.6-7,4.5-7,8.9
				c0,22.7,11.4,34.1,34.1,34.1h59.6V1126z"/>
			<path d="M3991.4,1151.5V896.1h25.5v255.5L3991.4,1151.5L3991.4,1151.5z"/>
			<path d="M4187.2,1151.5c-39.7,0-59.6-19.9-59.6-59.6v-59.6c0-39.7,19.9-59.6,59.6-59.6h93.7v-76.6h25.5V1092
				c0,39.7-19.9,59.6-59.6,59.6h-59.6V1151.5z M4153.2,1091.9c0,22.7,11.4,34.1,34.1,34.1h59.6c22.7,0,34.1-11.4,34.1-34.1v-93.7
				h-93.7c-22.7,0-34.1,11.4-34.1,34.1V1091.9z"/>
			<path d="M4446.9,1126c22.7,0,34.1-11.4,34.1-34.1h25.5c0,39.7-19.9,59.6-59.6,59.6h-59.6c-39.7,0-59.6-19.9-59.6-59.6v-59.6
				c0-39.7,19.9-59.6,59.6-59.6h59.6c39.7,0,59.6,17,59.6,51.1c0,24.8-8.6,38.9-25.9,42.6l-127.2,29c1,20.4,12.3,30.7,33.9,30.7
				L4446.9,1126L4446.9,1126z M4387.3,998.3c-22.7,0-34.1,11.4-34.1,34.1v36.6l120.7-27.8c4.7-1.6,7-4.5,7-8.9
				c0-22.7-11.4-34.1-34.1-34.1h-59.5V998.3z"/>
			<path d="M4608.9,1120l61.5-147.3h27.8l-74.9,178.8h-28.8l-75.1-178.8h27.9L4608.9,1120z"/>
			<path d="M4834.4,1126c22.7,0,34.1-11.4,34.1-34.1h25.5c0,39.7-19.9,59.6-59.6,59.6h-59.6c-39.7,0-59.6-19.9-59.6-59.6v-59.6
				c0-39.7,19.9-59.6,59.6-59.6h59.6c39.7,0,59.6,17,59.6,51.1c0,24.8-8.6,38.9-25.9,42.6l-127.2,29c1,20.4,12.3,30.7,33.9,30.7
				L4834.4,1126L4834.4,1126z M4774.8,998.3c-22.7,0-34.1,11.4-34.1,34.1v36.6l120.7-27.8c4.7-1.6,7-4.5,7-8.9
				c0-22.7-11.4-34.1-34.1-34.1h-59.5V998.3z"/>
			<path d="M4911,1151.5V896.1h25.5v255.5L4911,1151.5L4911,1151.5z"/>
			<path d="M4962.1,1032.3c0-39.7,19.9-59.6,59.6-59.6h59.6c39.7,0,59.6,19.9,59.6,59.6v59.6c0,39.7-19.9,59.6-59.6,59.6h-59.6
				c-39.7,0-59.6-19.9-59.6-59.6V1032.3z M5021.7,998.3c-22.7,0-34.1,11.4-34.1,34.1v59.6c0,22.7,11.4,34.1,34.1,34.1h59.6
				c22.7,0,34.1-11.4,34.1-34.1v-59.6c0-22.7-11.4-34.1-34.1-34.1L5021.7,998.3L5021.7,998.3z"/>
			<path d="M5285.7,972.7c39.7,0,59.6,19.9,59.6,59.6v59.6c0,39.7-19.9,59.6-59.6,59.6H5192v76.6h-25.5v-195.9
				c0-39.7,19.9-59.6,59.6-59.6h59.6V972.7z M5319.8,1032.3c0-22.7-11.4-34.1-34.1-34.1h-59.6c-22.7,0-34.1,11.4-34.1,34.1v93.7
				h93.7c22.7,0,34.1-11.4,34.1-34.1V1032.3z"/>
			<path d="M5439,998.3h-42.6v153.3h-25.5V972.7h68.1c27,0,47.6,6.4,61.7,19.2c4.3-12.8,15-19.2,32-19.2h34.1
				c56.8,0,85.2,28.4,85.2,85.2v93.7h-25.5v-93.7c0-39.7-19.9-59.6-59.6-59.6h-34.1c-5.7,0-8.5,2.8-8.5,8.5v144.8h-25.5v-93.7
				C5498.6,1018.1,5478.7,998.3,5439,998.3z"/>
			<path d="M5792.4,1126c22.7,0,34.1-11.4,34.1-34.1h25.5c0,39.7-19.9,59.6-59.6,59.6h-59.6c-39.7,0-59.6-19.9-59.6-59.6v-59.6
				c0-39.7,19.9-59.6,59.6-59.6h59.6c39.7,0,59.6,17,59.6,51.1c0,24.8-8.6,38.9-25.9,42.6l-127.2,29c1,20.4,12.3,30.7,33.9,30.7
				L5792.4,1126L5792.4,1126z M5732.8,998.3c-22.7,0-34.1,11.4-34.1,34.1v36.6l120.7-27.8c4.7-1.6,7-4.5,7-8.9
				c0-22.7-11.4-34.1-34.1-34.1h-59.5V998.3z"/>
			<path d="M5962.7,998.3h-68.1v153.3H5869V972.7h93.7c56.8,0,85.2,28.4,85.2,85.2v93.7h-25.5v-93.7
				C6022.3,1018.1,6002.4,998.3,5962.7,998.3z"/>
			<path d="M6124.5,1091.9c0,22.7,11.4,34.1,34.1,34.1h17v25.5h-17c-39.7,0-59.6-19.9-59.6-59.6v-93.7h-25.5v-25.5h25.5v-42.6h25.5
				v42.6h42.6v25.5h-42.6V1091.9z"/>
		</g>
	</g>
</g>
</svg>
